<svg xmlns="http://www.w3.org/2000/svg" width="39" height="39" viewBox="0 0 39 39"><defs><style>.a{fill:#1d817f;}.b{fill:none;}.c{fill:#fff;}</style></defs><g transform="translate(-31 -867)"><rect class="a" width="39" height="39" rx="4" transform="translate(31 867)"/><g transform="translate(38.265 874.266)"><path class="b" d="M0,0H25.259V25.259H0Z"/><path class="c" d="M22.944,23.891H20.576v-2.18a3.42,3.42,0,0,0-3.552-3.27H9.92a3.42,3.42,0,0,0-3.552,3.27v2.18H4v-2.18a5.7,5.7,0,0,1,5.92-5.45h7.1a5.7,5.7,0,0,1,5.92,5.45Zm-9.472-9.81a6.84,6.84,0,0,1-7.1-6.54A6.84,6.84,0,0,1,13.472,1a6.84,6.84,0,0,1,7.1,6.54A6.84,6.84,0,0,1,13.472,14.08Zm0-2.18a4.56,4.56,0,0,0,4.736-4.36,4.56,4.56,0,0,0-4.736-4.36A4.56,4.56,0,0,0,8.736,7.54,4.56,4.56,0,0,0,13.472,11.9Z" transform="translate(-0.843 -0.211)"/></g></g></svg>