<svg xmlns="http://www.w3.org/2000/svg" width="55" height="55" viewBox="0 0 55 55"><defs><style>.a,.c{fill:#1d817f;}.a{opacity:0.2;}.b{fill:none;}</style></defs><g transform="translate(-379 -147)"><circle class="a" cx="27.5" cy="27.5" r="27.5" transform="translate(379 147)"/><g transform="translate(393 161)"><path class="b" d="M0,0H27.038V27.038H0Z" transform="translate(0 0)"/><path class="c" d="M7.436,2H21.378a1.288,1.288,0,0,1,1.014.484l3.422,4.36V25.011a1.24,1.24,0,0,1-1.267,1.211H4.267A1.24,1.24,0,0,1,3,25.011V6.844l3.422-4.36A1.288,1.288,0,0,1,7.436,2ZM23.279,9.267H5.535V23.8H23.279Zm-.634-2.422-1.9-2.422H8.07l-1.9,2.422ZM10.6,11.689v2.422a3.721,3.721,0,0,0,3.8,3.633,3.721,3.721,0,0,0,3.8-3.633V11.689h2.535v2.422a6.2,6.2,0,0,1-6.337,6.055A6.2,6.2,0,0,1,8.07,14.111V11.689Z" transform="translate(-0.888 -0.592)"/></g></g></svg>