<svg xmlns="http://www.w3.org/2000/svg" width="135.861" height="66.736" viewBox="0 0 135.861 66.736"><defs><style>.a{fill:#124f4e;}.b{fill:#1d817f;}.c{fill:#b3b3b3;}.d{fill:#464646;}</style></defs><g transform="translate(-2108.072 -60.684)"><g transform="translate(2108.072 60.684)"><g transform="translate(0 0)"><path class="a" d="M2110.655,59.057,2099.81,69.9l14.328,14.327,3.3-3.3L2106.4,69.9l4.253-4.253,4.253,4.253-3.2,3.2,3.3,3.3,6.5-6.5Z" transform="translate(-2084.393 -59.057)"/><path class="a" d="M2170.686,152.447l-3.3,3.3,10.75,10.75-4.254,4.253-3.2-3.2-3.3,3.3,6.5,6.5,10.846-10.845Z" transform="translate(-2132.207 -125.132)"/><path class="b" d="M2155.816,111.769c-5.213,5.138-8.913,8.95-13.969,14.006l3.3,3.3c3.541-3.519,7.385-7.422,10.672-10.71l4.253,4.253-3.2,3.2,3.3,3.3,6.5-6.5Z" transform="translate(-2114.135 -96.352)"/><path class="c" d="M2097.781,125.483c-3.377,3.35-6.648,6.685-10,10.035l3.3,3.3c3.374-3.346,6.651-6.689,10-10.035Z" transform="translate(-2075.885 -106.054)"/><path class="b" d="M2057.95,111.769,2047.1,122.615l14.045,14.046,3.3-3.3-10.75-10.75,4.253-4.253,3.2,3.2,3.3-3.3Z" transform="translate(-2047.104 -96.352)"/><path class="a" d="M2069.034,177.1l-11.087,11.087-4.253-4.253,3.208-3.208c-1.389-1.4-1.918-1.927-3.292-3.3l-6.509,6.509,10.845,10.845,14.384-14.383Z" transform="translate(-2047.102 -142.577)"/><path class="c" d="M2118.039,151.293c3.69,3.657,6.67,6.708,10,10.035l-3.3,3.3c-3.374-3.346-6.652-6.689-10-10.035Z" transform="translate(-2094.958 -124.315)"/><path class="c" d="M2134.311,178.257l-10.118,10.193c-.026,5.842.021,11.975.022,17.017h-1.955c-.043-7.413.037-14.826.041-22.239l-4.7,4.7v22.2h11.277c.028-6.586-.025-13.172-.026-19.758,2.846-2.838,5.792-5.827,8.756-8.817Z" transform="translate(-2096.979 -143.393)"/><g transform="translate(65.945 25.029)"><path class="d" d="M-200.068,421.058l-.786,1.882a6.383,6.383,0,0,0-3.542-.771A4.327,4.327,0,0,0-208.032,424a7.683,7.683,0,0,0-1.361,4.711,6.863,6.863,0,0,0,1.4,4.469,4.485,4.485,0,0,0,3.624,1.706,4.509,4.509,0,0,0,3.718-1.607l1.29,1.684a7.394,7.394,0,0,1-5.255,1.9,6.587,6.587,0,0,1-5.3-2.279,8.969,8.969,0,0,1-1.935-6.01,8.849,8.849,0,0,1,2.064-6,6.726,6.726,0,0,1,5.337-2.389,9.19,9.19,0,0,1,4.387.87Z" transform="translate(211.856 -420.188)"/><path class="d" d="M-158.8,420.371l-6.979,16.347h2.627c1.507-4.044,3.031-8.074,4.551-12.12,1.426,4.056,2.883,8.073,4.293,12.12h2.6l-6.474-16.347Z" transform="translate(179.256 -420.318)"/><path class="d" d="M-109.139,423.11v4.48h5.677v1.871h-5.677v5.812h7.788v1.982h-10.134V421.129h10.263v1.982Z" transform="translate(140.843 -420.854)"/><path class="d" d="M-56.388,437.477l-8.879-11.79v11.57H-67.5V421.129h.938l8.644,11.152V421.129h2.228v16.348Z" transform="translate(109.719 -420.854)"/><path class="d" d="M-13.96,420.378l-6.979,16.348h2.627c1.507-4.044,3.031-8.074,4.551-12.12,1.426,4.056,2.883,8.073,4.293,12.12h2.6l-6.474-16.348Z" transform="translate(76.78 -420.322)"/></g></g></g></g></svg>